<svg width="15" height="9" viewBox="0 0 15 9" fill="none" xmlns="http://www.w3.org/2000/svg">
<path d="M3.32485 4.80854C3.3395 3.70407 4.24673 2.82059 5.3512 2.83524L12.6841 2.93251C13.7886 2.94716 14.672 3.85439 14.6574 4.95886L14.6315 6.91142C14.6168 8.01589 13.7096 8.89936 12.6051 8.88471L5.27225 8.78744C4.16777 8.77279 3.2843 7.86556 3.29895 6.76109L3.32485 4.80854Z" fill="#6E07F3"/>
<path d="M0 2C0 0.89543 0.895431 0 2 0H10C11.1046 0 12 0.895431 12 2V4C12 5.10457 11.1046 6 10 6H2C0.895431 6 0 5.10457 0 4V2Z" fill="#6000DB"/>
</svg>
