<svg width="20" height="21" viewBox="0 0 20 21" fill="none" xmlns="http://www.w3.org/2000/svg">
<path d="M19.2587 0.925049H0.740374C0.296789 0.925049 -0.036008 1.25515 0.00312757 1.64521L1.69456 18.3142C1.73374 18.704 2.11708 19.1119 2.54704 19.2173L9.21487 20.8461C9.64425 20.9508 10.3461 20.9515 10.7761 20.8475L17.4522 19.2209C17.8822 19.1159 18.2656 18.7116 18.3047 18.3212L19.9969 1.64521C20.036 1.25515 19.7046 0.925049 19.2587 0.925049ZM16.0472 6.9421C16.0469 6.94465 16.0446 6.94664 16.0418 6.94707C16.0389 6.94749 16.0361 6.94618 16.0348 6.9438L10.8107 8.82648C10.7363 8.8533 10.6939 8.92268 10.7094 8.99207C10.7249 9.06145 10.7941 9.11151 10.8746 9.11151H14.938C15.1542 9.11151 15.3601 9.19224 15.5047 9.3336C15.6492 9.47497 15.7187 9.66366 15.6957 9.85266L15.0608 15.0905C15.0296 15.3475 14.8333 15.5658 14.5561 15.6516L10.243 16.9862C10.0805 17.0365 9.90346 17.0369 9.74064 16.9873L5.44771 15.6795C5.16878 15.5945 4.97078 15.3756 4.93943 15.1175L4.65161 12.7453C4.63649 12.6208 4.68224 12.4965 4.77743 12.4034C4.87266 12.3102 5.00833 12.257 5.15076 12.257H6.34536C6.60206 12.257 6.81735 12.4273 6.84451 12.6517L7.0211 14.1098L9.99352 15.0185L12.9796 14.1015L13.3448 11.0775H4.90198C4.64606 11.0775 4.4311 10.9082 4.40303 10.6845L4.24228 9.40282C4.21774 9.20732 4.34317 9.02117 4.54986 8.94626L9.95332 6.98709C10.0146 6.96487 10.0495 6.90772 10.0366 6.85053C10.0237 6.79338 9.96675 6.75221 9.90051 6.75221H4.21141C4.04013 6.75221 3.89649 6.63846 3.87861 6.48873L3.71405 5.11116C3.70414 5.02826 3.73473 4.94554 3.79817 4.88354C3.8616 4.82159 3.952 4.7862 4.0468 4.7862H15.9507C16.0461 4.7862 16.1368 4.82197 16.2003 4.88448C16.2638 4.94702 16.294 5.03039 16.2832 5.11367L16.0472 6.9421Z" fill="white"/>
</svg>
