<svg width="45" height="45" viewBox="0 0 45 45" fill="none" xmlns="http://www.w3.org/2000/svg">
<circle cx="22.5" cy="22.5" r="22.5" fill="#7019df"/>
<path d="M19.6667 23.8408C18.5383 24.0042 17.1583 24.3067 16.6192 24.8458C15.6425 25.8225 15.6425 27.405 16.6192 28.3817C17.5958 29.3583 19.1783 29.3583 20.155 28.3817C20.6942 27.8425 20.9967 26.4633 21.16 25.3342H24.8408C25.0042 26.4625 25.3067 27.8425 25.8458 28.3817C26.8225 29.3583 28.405 29.3583 29.3817 28.3817C30.3583 27.405 30.3583 25.8225 29.3817 24.8458C28.8425 24.3067 27.4633 24.0042 26.3342 23.8408V20.16C27.4625 19.9967 28.8425 19.6942 29.3817 19.155C30.3583 18.1783 30.3583 16.5958 29.3817 15.6192C28.4058 14.6425 26.8225 14.6425 25.8458 15.6192C25.3067 16.1583 25.0042 17.5375 24.8408 18.6667H21.16C20.9967 17.5383 20.6942 16.1583 20.155 15.6192C19.1783 14.6425 17.5958 14.6425 16.6192 15.6192C15.6425 16.5958 15.6425 18.1783 16.6192 19.155C17.1583 19.6942 18.5375 19.9967 19.6667 20.16V23.8408ZM18.9575 27.2208C18.6342 27.5258 18.1192 27.5233 17.7983 27.2025C17.48 26.8842 17.4733 26.3692 17.78 26.0425C18.0133 25.88 18.6533 25.7025 19.4358 25.5633C19.295 26.345 19.1175 26.99 18.9575 27.2208ZM28.2208 26.0425C28.5275 26.3683 28.5208 26.8833 28.2025 27.2017C27.8817 27.5225 27.3667 27.525 27.0433 27.22C26.8808 26.9867 26.7033 26.3467 26.5642 25.5642C27.345 25.705 27.99 25.8825 28.2208 26.0425ZM27.0425 16.7792C27.365 16.4758 27.88 16.475 28.2017 16.7975C28.52 17.1158 28.5267 17.6308 28.22 17.9575C27.9867 18.12 27.3467 18.2975 26.565 18.4367C26.705 17.655 26.8825 17.01 27.0425 16.7792ZM17.7792 17.9575C17.4725 17.6317 17.4792 17.1167 17.7975 16.7983C18.1208 16.475 18.6358 16.4775 18.9575 16.78C19.12 17.0133 19.2975 17.6533 19.4367 18.4358C18.655 18.295 18.01 18.1175 17.7792 17.9575ZM24.6667 20.3333V23.6667H21.3333V20.3333H24.6667ZM31.3333 12H14.6667C13.75 12 13 12.75 13 13.6667V30.3333C13 31.25 13.75 32 14.6667 32H31.3333C32.25 32 33 31.25 33 30.3333V13.6667C33 12.75 32.25 12 31.3333 12ZM31.3333 30.3333H14.6667V13.6667H31.3333V30.3333Z" fill="white"/>
</svg>
