<svg width="21" height="24" viewBox="0 0 21 24" fill="none" xmlns="http://www.w3.org/2000/svg">
<path d="M1 4.5C1 3.57174 1.50045 2.6815 2.39124 2.02513C3.28204 1.36875 4.49022 1 5.75 1H10.5V8H5.75C4.49022 8 3.28204 7.63125 2.39124 6.97487C1.50045 6.3185 1 5.42826 1 4.5Z" stroke="black" stroke-width="1.82143" stroke-linecap="round" stroke-linejoin="round"/>
<path d="M10.5 1H15.25C15.8738 1 16.4914 1.09053 17.0677 1.26642C17.644 1.44231 18.1677 1.70012 18.6088 2.02513C19.0498 2.35013 19.3997 2.73597 19.6384 3.16061C19.8771 3.58525 20 4.04037 20 4.5C20 4.95963 19.8771 5.41475 19.6384 5.83939C19.3997 6.26403 19.0498 6.64987 18.6088 6.97487C18.1677 7.29988 17.644 7.55769 17.0677 7.73358C16.4914 7.90947 15.8738 8 15.25 8H10.5V1Z" stroke="black" stroke-width="1.82143" stroke-linecap="round" stroke-linejoin="round"/>
<path d="M10.5 12C10.5 11.4747 10.6229 10.9546 10.8616 10.4693C11.1003 9.98396 11.4502 9.54301 11.8912 9.17157C12.3323 8.80014 12.856 8.5055 13.4323 8.30448C14.0086 8.10346 14.6262 8 15.25 8C15.8738 8 16.4914 8.10346 17.0677 8.30448C17.644 8.5055 18.1677 8.80014 18.6088 9.17157C19.0498 9.54301 19.3997 9.98396 19.6384 10.4693C19.8771 10.9546 20 11.4747 20 12C20 12.5253 19.8771 13.0454 19.6384 13.5307C19.3997 14.016 19.0498 14.457 18.6088 14.8284C18.1677 15.1999 17.644 15.4945 17.0677 15.6955C16.4914 15.8965 15.8738 16 15.25 16C14.6262 16 14.0086 15.8965 13.4323 15.6955C12.856 15.4945 12.3323 15.1999 11.8912 14.8284C11.4502 14.457 11.1003 14.016 10.8616 13.5307C10.6229 13.0454 10.5 12.5253 10.5 12V12Z" stroke="black" stroke-width="1.82143" stroke-linecap="round" stroke-linejoin="round"/>
<path d="M1 19.5C1 18.5717 1.50045 17.6815 2.39124 17.0251C3.28204 16.3687 4.49022 16 5.75 16H10.5V19.5C10.5 20.4283 9.99955 21.3185 9.10876 21.9749C8.21796 22.6313 7.00978 23 5.75 23C4.49022 23 3.28204 22.6313 2.39124 21.9749C1.50045 21.3185 1 20.4283 1 19.5Z" stroke="black" stroke-width="1.82143" stroke-linecap="round" stroke-linejoin="round"/>
<path d="M1 12C1 10.9391 1.50045 9.92172 2.39124 9.17157C3.28204 8.42143 4.49022 8 5.75 8H10.5V16H5.75C4.49022 16 3.28204 15.5786 2.39124 14.8284C1.50045 14.0783 1 13.0609 1 12Z" stroke="black" stroke-width="1.82143" stroke-linecap="round" stroke-linejoin="round"/>
</svg>
