<svg width="45" height="45" viewBox="0 0 45 45" fill="none" xmlns="http://www.w3.org/2000/svg">
<path d="M45 22.5C45 34.9264 34.9264 45 22.5 45C10.0736 45 0 34.9264 0 22.5C0 10.0736 10.0736 0 22.5 0C34.9264 0 45 10.0736 45 22.5Z" fill="#7019DF"/>
<path d="M14.5 32C14.1 32 13.75 31.8125 13.45 31.4375C13.15 31.0625 13 30.625 13 30.125V13.875C13 13.375 13.15 12.9375 13.45 12.5625C13.75 12.1875 14.1 12 14.5 12H31.5C31.9 12 32.25 12.1875 32.55 12.5625C32.85 12.9375 33 13.375 33 13.875V30.125C33 30.625 32.85 31.0625 32.55 31.4375C32.25 31.8125 31.9 32 31.5 32H14.5ZM14.5 26.0113C14.5 28.2832 16.3418 30.125 18.6137 30.125H27.3863C29.6582 30.125 31.5 28.2832 31.5 26.0113V20.6137C31.5 18.3418 29.6582 16.5 27.3863 16.5H18.6137C16.3418 16.5 14.5 18.3418 14.5 20.6137V26.0113ZM19.1415 27.0732C18.8126 27.4843 18.1874 27.4843 17.8586 27.0732V27.0732C17.6194 26.7743 17.6184 26.3499 17.8561 26.0499L18.7434 24.9301C19.4935 23.9834 19.4903 22.6441 18.7358 21.701L17.8445 20.5869C17.5999 20.2811 17.6024 19.8459 17.8506 19.5429V19.5429C18.185 19.1346 18.8106 19.1382 19.1403 19.5503L20.7256 21.532C21.5584 22.5729 21.5584 24.0521 20.7256 25.093L19.1415 27.0732ZM24.1875 28C23.6697 28 23.25 27.5803 23.25 27.0625V27.0625C23.25 26.5447 23.6697 26.125 24.1875 26.125H27.8125C28.3303 26.125 28.75 26.5447 28.75 27.0625V27.0625C28.75 27.5803 28.3303 28 27.8125 28H24.1875Z" fill="white"/>
</svg>
