<svg width="20" height="21" viewBox="0 0 20 21" fill="none" xmlns="http://www.w3.org/2000/svg">
<path d="M0.347004 0.355469C0.13841 0.355469 -0.0170122 0.505262 0.0014958 0.688342L1.76006 18.0704C1.77857 18.2535 1.95811 18.4435 2.1592 18.4927L9.62164 20.3186C9.82265 20.3678 10.1515 20.3678 10.3526 20.3187L17.8377 18.4898C18.0388 18.4407 18.2185 18.2507 18.237 18.0677L19.9985 0.688342C20.0171 0.505262 19.8616 0.355469 19.653 0.355469H0.347004ZM16.2534 4.34199C16.2368 4.50528 16.2081 4.78876 16.1896 4.97184L16.1432 5.4279C16.1245 5.61092 16.098 5.87267 16.084 6.0095C16.07 6.14639 16.0567 6.25835 16.0543 6.25835C16.052 6.25835 15.8793 6.25835 15.6707 6.25835H10.3793C10.1707 6.25835 9.99824 6.25835 9.99597 6.25835C9.99369 6.25835 9.82113 6.25835 9.61253 6.25835H6.82572C6.61712 6.25835 6.4617 6.40814 6.48021 6.59122L6.64276 8.19242C6.66127 8.37543 6.84718 8.52529 7.05578 8.52529H9.61261C9.8212 8.52529 9.99377 8.52529 9.99604 8.52529C9.99832 8.52529 10.1707 8.52529 10.3793 8.52529H14.7741C14.9827 8.52529 15.3056 8.52529 15.4915 8.52529C15.6772 8.52529 15.8156 8.65891 15.7988 8.82221C15.7818 8.9855 15.7529 9.26904 15.7344 9.45206L15.2117 14.6141C15.1931 14.7972 15.1695 15.0311 15.1593 15.1339C15.1489 15.2366 14.9761 15.3609 14.7751 15.41L10.3655 16.4874C10.1645 16.5365 9.99749 16.5771 9.99438 16.5777C9.99127 16.5783 9.82431 16.5386 9.62323 16.4894L5.209 15.4101C5.00799 15.361 4.82837 15.1709 4.80986 14.9878L4.52572 12.1775C4.50721 11.9944 4.66278 11.8446 4.87138 11.8446H5.27423C5.48282 11.8446 5.82416 11.8446 6.03275 11.8446H6.6335C6.8421 11.8446 7.02786 11.9944 7.04652 12.1775L7.15795 13.2776C7.17646 13.4607 7.3563 13.6497 7.55777 13.6976L9.62255 14.1889C9.82386 14.2369 9.98937 14.2761 9.99028 14.2761C9.99119 14.2761 10.1566 14.2368 10.358 14.1889L12.4265 13.6963C12.6278 13.6484 12.8078 13.4594 12.8265 13.2764L13.0508 11.0722C13.0694 10.8891 12.914 10.7393 12.7054 10.7393H10.3793C10.1707 10.7393 9.99832 10.7393 9.99604 10.7393C9.99377 10.7393 9.8212 10.7393 9.61261 10.7393H4.75889C4.55029 10.7393 4.36453 10.5894 4.34602 10.4064L3.79564 4.97178C3.77713 4.7887 3.74838 4.50528 3.73177 4.34192C3.71531 4.17863 3.8724 4.04501 4.08099 4.04501H9.61261C9.8212 4.04501 9.99377 4.04501 9.99604 4.04501C9.99832 4.04501 10.1707 4.04501 10.3793 4.04501H15.9043C16.1128 4.04501 16.27 4.17863 16.2534 4.34199Z" fill="white"/>
</svg>
