<svg width="21" height="20" viewBox="0 0 21 20" fill="none" xmlns="http://www.w3.org/2000/svg">
<path d="M0.0319824 0V20H20.032V0H0.0319824ZM10.9163 15.5979C10.9163 17.5443 9.77341 18.4329 8.10841 18.4329C6.60413 18.4329 5.73341 17.6564 5.28698 16.7143L6.81841 15.79C7.11341 16.3121 7.38127 16.7543 8.02841 16.7543C8.64413 16.7543 9.03698 16.5129 9.03698 15.5714V9.18286H10.9163V15.5979ZM15.362 18.4329C13.6163 18.4329 12.487 17.6029 11.9377 16.5129L13.4691 15.6293C13.8713 16.2857 14.3977 16.7721 15.322 16.7721C16.0984 16.7721 16.5991 16.3836 16.5991 15.8436C16.5991 15.2007 16.0898 14.9729 15.2284 14.5936L14.7598 14.3929C13.4027 13.8171 12.5056 13.0893 12.5056 11.5579C12.5056 10.1471 13.5813 9.07571 15.2556 9.07571C16.452 9.07571 17.3091 9.49071 17.9256 10.58L16.4613 11.5179C16.1398 10.9421 15.7913 10.7143 15.2513 10.7143C14.7027 10.7143 14.3541 11.0629 14.3541 11.5179C14.3541 12.0807 14.7027 12.3079 15.5106 12.6607L15.9791 12.8614C17.5777 13.5443 18.4748 14.2457 18.4748 15.8164C18.4748 17.5043 17.1441 18.4321 15.3627 18.4321L15.362 18.4329Z" fill="white"/>
</svg>
