<svg width="20" height="21" viewBox="0 0 20 21" fill="none" xmlns="http://www.w3.org/2000/svg">
<path d="M16.4585 0.881836H3.5415C1.58559 0.881836 0 2.50806 0 4.51412V17.2496C0 19.2556 1.58559 20.8818 3.5415 20.8818H16.4585C18.4144 20.8818 20 19.2556 20 17.2496V4.51412C20 2.50806 18.4144 0.881836 16.4585 0.881836Z" fill="black"/>
<path d="M5.4043 18.8011V7.56652C5.4043 7.4851 5.43619 7.44362 5.5009 7.44362C5.67208 7.44362 5.82918 7.44362 6.06367 7.43491C6.29815 7.4262 6.55468 7.42313 6.82856 7.4175L7.69803 7.39957C8.0038 7.39377 8.30691 7.39087 8.60736 7.39087C9.42306 7.39087 10.1109 7.50217 10.6708 7.72476C11.1742 7.9111 11.6333 8.2174 12.0149 8.62146C12.3384 8.97189 12.5884 9.39492 12.7474 9.86127C12.8979 10.3154 12.9739 10.7949 12.9721 11.2778C12.9721 12.2159 12.7735 12.9896 12.3765 13.5986C11.9766 14.2103 11.4147 14.6735 10.7665 14.926C10.0902 15.2015 9.33848 15.2947 8.51216 15.2947C8.27767 15.2947 8.10978 15.2921 8.01318 15.286C7.91657 15.2799 7.77166 15.2773 7.57844 15.2773V18.7847C7.58089 18.8029 7.58001 18.8215 7.57586 18.8393C7.57171 18.8571 7.56436 18.8739 7.55424 18.8886C7.54413 18.9033 7.53144 18.9157 7.51692 18.925C7.5024 18.9343 7.48633 18.9404 7.46964 18.943C7.45768 18.945 7.44549 18.945 7.43353 18.943H5.51685C5.43994 18.9414 5.4043 18.8948 5.4043 18.8011ZM7.57844 9.55349V13.2176C7.71788 13.2296 7.84669 13.2354 7.96487 13.235H8.49621C8.88719 13.2336 9.27559 13.1658 9.64754 13.0343C9.96638 12.9313 10.2514 12.7304 10.4687 12.4556C10.6779 12.1862 10.7824 11.8107 10.7824 11.329C10.7906 10.9888 10.7092 10.6533 10.548 10.3621C10.379 10.0805 10.1347 9.8625 9.84826 9.73785C9.47489 9.57951 9.07618 9.50479 8.67583 9.51816C8.4179 9.51816 8.18982 9.52106 7.9916 9.52686C7.79339 9.53267 7.65645 9.54154 7.58079 9.55349H7.57844Z" fill="white"/>
<path d="M19.1973 12.5513C18.8948 12.3814 18.5724 12.2572 18.2392 12.1821C17.8722 12.09 17.4969 12.0428 17.1202 12.0413C16.9166 12.0353 16.7132 12.0621 16.5167 12.1206C16.3914 12.1509 16.2801 12.2288 16.2025 12.3403C16.15 12.4296 16.1222 12.5334 16.1223 12.6394C16.1251 12.7422 16.1591 12.8411 16.2189 12.9206C16.3129 13.0407 16.4278 13.1392 16.557 13.2104C16.7864 13.3449 17.0229 13.4646 17.2652 13.5689C17.8055 13.7665 18.3219 14.0351 18.8029 14.3688C19.1303 14.5948 19.4013 14.9059 19.5917 15.2742C19.7522 15.6235 19.8326 16.0101 19.8262 16.4008C19.8357 16.9161 19.7009 17.4223 19.4398 17.8516C19.16 18.2871 18.7717 18.6257 18.3208 18.8272C17.8312 19.0621 17.2269 19.1795 16.5078 19.1795C16.0512 19.1841 15.5954 19.137 15.1478 19.0387C14.795 18.968 14.4515 18.8499 14.1254 18.6869C14.0901 18.6671 14.0607 18.6367 14.0407 18.5994C14.0207 18.562 14.0109 18.5191 14.0124 18.4759V16.5775C14.0103 16.5589 14.013 16.54 14.0201 16.5229C14.0273 16.5059 14.0385 16.4913 14.0527 16.4807C14.0665 16.4721 14.0824 16.4683 14.0983 16.4699C14.1141 16.4714 14.1292 16.4783 14.1413 16.4894C14.5269 16.7376 14.9456 16.9185 15.3822 17.0256C15.7669 17.131 16.1614 17.187 16.5579 17.1925C16.9331 17.1925 17.2095 17.1398 17.3871 17.0343C17.467 16.9943 17.5346 16.9299 17.5817 16.8488C17.6289 16.7678 17.6534 16.6735 17.6525 16.5775C17.6525 16.4249 17.572 16.2783 17.411 16.1376C17.25 15.9969 16.9223 15.828 16.428 15.6306C15.9225 15.4385 15.4432 15.1724 15.0033 14.8394C14.6887 14.6008 14.4295 14.2851 14.2464 13.9176C14.0877 13.5713 14.0073 13.1885 14.0119 12.8012C14.0105 12.3348 14.1277 11.877 14.3505 11.479C14.6036 11.0417 14.9671 10.6936 15.3972 10.4768C15.8693 10.219 16.4596 10.0901 17.1681 10.0901C17.5831 10.0863 17.9977 10.1185 18.408 10.1864C18.7051 10.2281 18.9954 10.3143 19.2709 10.4425C19.2928 10.4493 19.3129 10.4616 19.3297 10.4784C19.3465 10.4952 19.3594 10.5161 19.3675 10.5393C19.3785 10.5821 19.3838 10.6264 19.3835 10.6709V12.4469C19.3848 12.4674 19.3811 12.4879 19.3729 12.5064C19.3647 12.5249 19.3522 12.5408 19.3366 12.5524C19.3149 12.564 19.291 12.5699 19.2668 12.5697C19.2427 12.5696 19.2189 12.5633 19.1973 12.5513Z" fill="white"/>
</svg>
