<svg width="20" height="20" viewBox="0 0 20 20" fill="none" xmlns="http://www.w3.org/2000/svg">
<path d="M6.71736 0.00886812C6.11356 -0.0354378 5.52016 0.0841045 5 0.416418C4.30646 0.859502 3.84461 1.61581 3.59654 2.48659C3.34847 3.35736 3.29113 4.36088 3.3817 5.45676C3.39087 5.56776 3.40852 5.68346 3.42076 5.79638C3.32609 5.84119 3.22639 5.88235 3.13477 5.92915C2.23182 6.3903 1.47542 6.94644 0.917969 7.61955C0.360514 8.29266 0 9.11384 0 10C0 10.8862 0.360513 11.7074 0.917969 12.3805C1.47542 13.0536 2.23182 13.6097 3.13477 14.0709C3.22639 14.1177 3.32609 14.1588 3.42076 14.2036C3.40852 14.3166 3.39087 14.4323 3.3817 14.5433C3.29113 15.6391 3.34847 16.6427 3.59654 17.5134C3.84461 18.3842 4.30646 19.1405 5 19.5836C5.69354 20.0267 6.5159 20.0916 7.32143 19.8939C8.12696 19.6962 8.94068 19.2489 9.75307 18.6141C9.83532 18.5499 9.91779 18.4754 10 18.4073C10.0822 18.4754 10.1647 18.5499 10.2469 18.6141C11.0593 19.2489 11.873 19.6962 12.6786 19.8939C13.4841 20.0916 14.3065 20.0267 15 19.5836C15.6935 19.1405 16.1554 18.3842 16.4035 17.5134C16.6515 16.6427 16.7089 15.6391 16.6183 14.5433C16.6091 14.4323 16.5915 14.3166 16.5792 14.2036C16.6739 14.1588 16.7736 14.1177 16.8652 14.0709C17.7682 13.6097 18.5246 13.0536 19.082 12.3805C19.6395 11.7074 20 10.8862 20 10C20 9.11384 19.6395 8.29266 19.082 7.61955C18.5246 6.94644 17.7682 6.3903 16.8652 5.92915C16.7736 5.88235 16.6739 5.84119 16.5792 5.79638C16.5915 5.68346 16.6091 5.56776 16.6183 5.45676C16.7089 4.36088 16.6515 3.35736 16.4035 2.48659C16.1554 1.61581 15.6935 0.859502 15 0.416418C14.3065 -0.0266666 13.4841 -0.0915323 12.6786 0.106124C11.873 0.303782 11.0593 0.751165 10.2469 1.38589C10.1647 1.45015 10.0822 1.5246 10 1.59275C9.91779 1.5246 9.83532 1.45015 9.75307 1.38589C8.94068 0.751165 8.12696 0.303781 7.32143 0.106124C7.12005 0.05671 6.91862 0.0236367 6.71736 0.00886812ZM6.62388 1.58349C6.74561 1.59363 6.875 1.61598 7.01311 1.64987C7.55289 1.78232 8.19932 2.11757 8.88114 2.6425C8.31327 3.2386 7.75443 3.91674 7.22098 4.67562C6.36132 4.80738 5.55158 5.00246 4.8019 5.24835C4.73208 4.33286 4.79197 3.54537 4.95815 2.96206C5.12828 2.36487 5.38291 1.99743 5.71429 1.78572C5.96281 1.62695 6.25872 1.55307 6.62388 1.58349ZM13.3761 1.58349C13.7413 1.55307 14.0372 1.62695 14.2857 1.78572C14.6171 1.99743 14.8717 2.36487 15.0419 2.96206C15.208 3.54537 15.2679 4.33286 15.1981 5.24835C14.4484 5.00246 13.6387 4.80738 12.779 4.67562C12.2456 3.91674 11.6867 3.2386 11.1189 2.6425C11.8007 2.11757 12.4471 1.78232 12.9869 1.64987C13.125 1.61598 13.2544 1.59363 13.3761 1.58349ZM10 3.6444C10.2511 3.90126 10.5017 4.18689 10.752 4.48574C10.5029 4.47599 10.2539 4.46722 10 4.46722C9.74608 4.46722 9.49713 4.47599 9.24805 4.48574C9.49832 4.18689 9.74893 3.90126 10 3.6444ZM10 6.04801C10.689 6.04801 11.3567 6.09285 11.9992 6.16843C12.3795 6.74631 12.7484 7.36378 13.0929 8.02401C13.4374 8.68429 13.7362 9.3465 13.9983 10C13.7362 10.6535 13.4374 11.3157 13.0929 11.976C12.7484 12.6362 12.3795 13.2537 11.9992 13.8316C11.3567 13.9072 10.689 13.952 10 13.952C9.31104 13.952 8.64329 13.9072 8.00084 13.8316C7.62046 13.2537 7.25156 12.6362 6.90709 11.976C6.56259 11.3157 6.26376 10.6535 6.00167 10C6.26376 9.3465 6.56259 8.68429 6.90709 8.02401C7.25156 7.36378 7.62046 6.74631 8.00084 6.16843C8.64329 6.09285 9.31104 6.04801 10 6.04801ZM6.06027 6.52195C5.9281 6.75576 5.7966 6.99029 5.66964 7.23361C5.54269 7.47694 5.42522 7.72024 5.30831 7.96381C5.19973 7.57512 5.10193 7.19149 5.02651 6.82298C5.35294 6.71085 5.70139 6.61234 6.06027 6.52195ZM13.9397 6.52195C14.2986 6.61234 14.6471 6.71085 14.9735 6.82298C14.8981 7.19149 14.8003 7.57512 14.6917 7.96381C14.5748 7.72024 14.4573 7.47694 14.3304 7.23361C14.2034 6.99029 14.0719 6.75576 13.9397 6.52195ZM3.68164 7.39416C3.86418 8.23623 4.11626 9.10955 4.44336 10C4.11626 10.8905 3.86418 11.7638 3.68164 12.6059C2.93058 12.2151 2.34457 11.763 1.97126 11.3122C1.58895 10.8506 1.42857 10.4234 1.42857 10C1.42857 9.5766 1.58895 9.14946 1.97126 8.68783C2.34457 8.23706 2.93058 7.78492 3.68164 7.39416ZM16.3184 7.39416C17.0694 7.78492 17.6554 8.23706 18.0287 8.68783C18.411 9.14946 18.5714 9.5766 18.5714 10C18.5714 10.4234 18.411 10.8506 18.0287 11.3122C17.6554 11.763 17.0694 12.2151 16.3184 12.6059C16.1358 11.7638 15.8837 10.8905 15.5566 10C15.8837 9.10955 16.1358 8.23623 16.3184 7.39416ZM10 7.62881C8.82499 7.62881 7.85714 8.6998 7.85714 10C7.85714 11.3002 8.82499 12.3712 10 12.3712C11.175 12.3712 12.1429 11.3002 12.1429 10C12.1429 8.6998 11.175 7.62881 10 7.62881ZM10 9.20961C10.4029 9.20961 10.7143 9.55412 10.7143 10C10.7143 10.4459 10.4029 10.7904 10 10.7904C9.59705 10.7904 9.28571 10.4459 9.28571 10C9.28571 9.55412 9.59705 9.20961 10 9.20961ZM5.30831 12.0362C5.42522 12.2798 5.54269 12.5231 5.66964 12.7664C5.7966 13.0097 5.9281 13.2443 6.06027 13.4781C5.70139 13.3877 5.35294 13.2892 5.02651 13.177C5.10193 12.8085 5.19973 12.4249 5.30831 12.0362ZM14.6917 12.0362C14.8003 12.4249 14.8981 12.8085 14.9735 13.177C14.6471 13.2892 14.2986 13.3877 13.9397 13.4781C14.0719 13.2443 14.2034 13.0097 14.3304 12.7664C14.4573 12.5231 14.5748 12.2798 14.6917 12.0362ZM4.8019 14.7517C5.55158 14.9976 6.36132 15.1926 7.22098 15.3244C7.75443 16.0833 8.31327 16.7614 8.88114 17.3575C8.19932 17.8825 7.55289 18.2177 7.01311 18.3501C6.46067 18.4857 6.04566 18.426 5.71429 18.2143C5.38291 18.0026 5.12828 17.6351 4.95815 17.038C4.79197 16.4547 4.73208 15.6672 4.8019 14.7517ZM15.1981 14.7517C15.2679 15.6672 15.208 16.4547 15.0419 17.038C14.8717 17.6351 14.6171 18.0026 14.2857 18.2143C13.9543 18.426 13.5393 18.4857 12.9869 18.3501C12.4471 18.2177 11.8007 17.8825 11.1189 17.3575C11.6867 16.7614 12.2456 16.0833 12.779 15.3244C13.6387 15.1926 14.4484 14.9976 15.1981 14.7517ZM9.24805 15.5143C9.49713 15.524 9.74608 15.5328 10 15.5328C10.2539 15.5328 10.5029 15.524 10.752 15.5143C10.5017 15.8131 10.2511 16.0988 10 16.3556C9.74893 16.0988 9.49832 15.8131 9.24805 15.5143Z" fill="white"/>
</svg>
