<svg width="35" height="30" viewBox="0 0 35 30" fill="none" xmlns="http://www.w3.org/2000/svg">
<path d="M0 15V30H35V0H0V15ZM28.2034 13.8037C29.0927 13.9941 29.7697 14.3363 30.3964 14.8875C30.7158 15.18 31.1937 15.7172 31.2342 15.8494C31.2452 15.8888 29.7248 16.7625 28.8017 17.2509C28.7678 17.2706 28.6311 17.1487 28.4823 16.9575C28.0328 16.3959 27.5592 16.1522 26.8362 16.1081C25.7764 16.0491 25.0928 16.5234 25.0983 17.3194C25.0928 17.5144 25.1442 17.7103 25.2459 17.8809C25.48 18.2962 25.9186 18.5447 27.2738 19.0481C29.7806 19.9706 30.8514 20.5809 31.5175 21.4453C32.2634 22.4119 32.4286 23.955 31.9277 25.1072C31.3698 26.3522 29.9906 27.2016 28.0536 27.48C27.4553 27.5728 26.0313 27.5578 25.387 27.4556C23.9805 27.2409 22.6472 26.6447 21.8269 25.8637C21.502 25.5609 20.8753 24.765 20.9158 24.7116C20.9333 24.6919 21.0755 24.6141 21.2352 24.5353C21.3948 24.4566 21.9811 24.1641 22.5345 23.8903L23.543 23.3878L23.7541 23.6559C24.0505 24.0412 24.6936 24.5691 25.0819 24.7444C26.1986 25.2525 27.7309 25.1794 28.4889 24.5981C28.7963 24.3788 28.968 24.0413 28.945 23.7C28.945 23.3531 28.8936 23.1975 28.6825 22.9378C28.4091 22.6059 27.8567 22.3228 26.2784 21.7369C24.4727 21.0675 23.6917 20.6578 22.9863 19.9988C22.5422 19.5638 22.2119 19.0519 22.0237 18.4997C21.8925 18.075 21.8586 17.01 21.9614 16.5853C22.3322 15.0863 23.6534 14.0466 25.55 13.7391C26.1658 13.6369 27.6008 13.6753 28.2045 13.8028L28.2034 13.8037ZM19.9894 15.0591L20.0003 16.2844H15.4427V27.3834H12.2183V16.2844H7.66719V15.0834C7.66719 14.4141 7.68469 13.8581 7.70656 13.8431C7.72406 13.8234 10.4923 13.8141 13.8534 13.8187L19.9719 13.8337L19.9894 15.0591Z" fill="white"/>
</svg>
